<?xml version="1.0" encoding="UTF-8" standalone="no"?><svg xmlns="http://www.w3.org/2000/svg" xmlns:xlink="http://www.w3.org/1999/xlink" contentStyleType="text/css" height="706px" preserveAspectRatio="none" style="width:379px;height:706px;background:#FFFFFF;" version="1.1" viewBox="0 0 379 706" width="379px" zoomAndPan="magnify"><defs/><g><!--MD5=[6ea93574f71f75ac542a4032e198fe98]
cluster Système--><g id="cluster_Système"><path d="M137.5,6 L198.5,6 A3.75,3.75 0 0 1 201,8.5 L208,28.4883 L369.5,28.4883 A2.5,2.5 0 0 1 372,30.9883 L372,696.5 A2.5,2.5 0 0 1 369.5,699 L137.5,699 A2.5,2.5 0 0 1 135,696.5 L135,8.5 A2.5,2.5 0 0 1 137.5,6 " fill="none" style="stroke:#000000;stroke-width:1.5;"/><line style="stroke:#000000;stroke-width:1.5;" x1="135" x2="208" y1="28.4883" y2="28.4883"/><text fill="#000000" font-family="sans-serif" font-size="14" font-weight="bold" lengthAdjust="spacing" textLength="60" x="139" y="21.5352">Système</text></g><g id="elem_UC1"><ellipse cx="253.2687" cy="56.1537" fill="#F1F1F1" rx="63.7687" ry="15.1537" style="stroke:#181818;stroke-width:0.5;"/><text fill="#000000" font-family="sans-serif" font-size="14" lengthAdjust="spacing" textLength="76" x="212.2687" y="60.1713">Connexion</text></g><g id="elem_UC2"><ellipse cx="253.2952" cy="124.059" fill="#F1F1F1" rx="75.7952" ry="17.559" style="stroke:#181818;stroke-width:0.5;"/><text fill="#000000" font-family="sans-serif" font-size="14" lengthAdjust="spacing" textLength="108" x="199.2952" y="127.3501">Gérer son profil</text></g><g id="elem_UC3"><ellipse cx="253.4589" cy="196.7918" fill="#F1F1F1" rx="89.4589" ry="20.2918" style="stroke:#181818;stroke-width:0.5;"/><text fill="#000000" font-family="sans-serif" font-size="14" lengthAdjust="spacing" textLength="140" x="183.4589" y="200.0828">Gérer son calendrier</text></g><g id="elem_UC4"><ellipse cx="253.7062" cy="272.9412" fill="#F1F1F1" rx="87.7062" ry="19.9412" style="stroke:#181818;stroke-width:0.5;"/><text fill="#000000" font-family="sans-serif" font-size="14" lengthAdjust="spacing" textLength="136" x="185.7062" y="276.2323">Gérer les invitations</text></g><g id="elem_UC5"><ellipse cx="253.6645" cy="349.2329" fill="#F1F1F1" rx="91.6645" ry="20.7329" style="stroke:#181818;stroke-width:0.5;"/><text fill="#000000" font-family="sans-serif" font-size="14" lengthAdjust="spacing" textLength="145" x="181.1645" y="352.5239">Rechercher (swipper)</text></g><g id="elem_UC6"><ellipse cx="253.2804" cy="425.0561" fill="#F1F1F1" rx="90.7804" ry="20.5561" style="stroke:#181818;stroke-width:0.5;"/><text fill="#000000" font-family="sans-serif" font-size="14" lengthAdjust="spacing" textLength="143" x="181.7804" y="428.3471">Planifier un déjeuner</text></g><g id="elem_UC7"><ellipse cx="253.4454" cy="503.8891" fill="#F1F1F1" rx="102.4454" ry="22.8891" style="stroke:#181818;stroke-width:0.5;"/><text fill="#000000" font-family="sans-serif" font-size="14" lengthAdjust="spacing" textLength="169" x="168.9454" y="507.1801">Vérification des données</text></g><g id="elem_UC8"><ellipse cx="253.4178" cy="583.9836" fill="#F1F1F1" rx="97.9178" ry="21.9836" style="stroke:#181818;stroke-width:0.5;"/><text fill="#000000" font-family="sans-serif" font-size="14" lengthAdjust="spacing" textLength="159" x="173.9178" y="587.2746">Validation des comptes</text></g><g id="elem_UC9"><ellipse cx="253.2804" cy="662.0561" fill="#F1F1F1" rx="90.7804" ry="20.5561" style="stroke:#181818;stroke-width:0.5;"/><text fill="#000000" font-family="sans-serif" font-size="14" lengthAdjust="spacing" textLength="143" x="181.7804" y="665.3471">Gestion des données</text></g><!--MD5=[fee662a292a0353a69bd162820bae93b]
entity User--><g id="elem_User"><ellipse cx="47" cy="251" fill="#F1F1F1" rx="16" ry="16" style="stroke:#181818;stroke-width:1.5;"/><path d="M47,271 C51,271 54,271 58,267 C66,267 74,275 74,283 L74,287 C74,291 70,295 66,295 L28,295 C24,295 20,291 20,287 L20,283 C20,275 28,267 36,267 C40,271 43,271 47,271 " fill="#F1F1F1" style="stroke:#181818;stroke-width:1.5;"/><text fill="#000000" font-family="sans-serif" font-size="14" lengthAdjust="spacing" textLength="31" x="31.5" y="310.0352">User</text></g><!--MD5=[97ab183161fd5d1db7fba7485cf76add]
entity Admin--><g id="elem_Admin"><ellipse cx="47" cy="531" fill="#F1F1F1" rx="16" ry="16" style="stroke:#181818;stroke-width:1.5;"/><path d="M47,551 C51,551 54,551 58,547 C66,547 74,555 74,563 L74,567 C74,571 70,575 66,575 L28,575 C24,575 20,571 20,567 L20,563 C20,555 28,547 36,547 C40,551 43,551 47,551 " fill="#F1F1F1" style="stroke:#181818;stroke-width:1.5;"/><text fill="#000000" font-family="sans-serif" font-size="14" lengthAdjust="spacing" textLength="82" x="6" y="590.0352">Main Admin</text></g><!--MD5=[57bf3159251ba6d788e56222dd11fdd6]
link User to UC1--><g id="link_User_UC1"><path d="M54.54,233.21 C63.53,191.26 83.81,126.21 127,89 C143.47,74.81 165.35,66.63 186.22,61.95 " fill="none" id="User-to-UC1" style="stroke:#181818;stroke-width:1.0;"/><polygon fill="#181818" points="190.88,60.97,181.2502,58.9042,185.9866,61.9972,182.8937,66.7336,190.88,60.97" style="stroke:#181818;stroke-width:1.0;"/></g><!--MD5=[06ebee4cbbe132cc9038a23578b440b9]
link User to UC2--><g id="link_User_UC2"><path d="M66.66,233.03 C80.14,208.29 100.61,177.78 127,159 C143.12,147.53 162.87,139.82 181.89,134.62 " fill="none" id="User-to-UC2" style="stroke:#181818;stroke-width:1.0;"/><polygon fill="#181818" points="186.3,133.47,176.5793,131.8865,181.4639,134.7397,178.6107,139.6243,186.3,133.47" style="stroke:#181818;stroke-width:1.0;"/></g><!--MD5=[7128cd1693f5ac5e48a097ae8b02564a]
link User to UC3--><g id="link_User_UC3"><path d="M75.69,258.39 C90.64,250.83 109.55,241.79 127,235 C146.51,227.4 168.21,220.36 188,214.45 " fill="none" id="User-to-UC3" style="stroke:#181818;stroke-width:1.0;"/><polygon fill="#181818" points="192.62,213.09,182.8554,211.8047,187.825,214.507,185.1226,219.4767,192.62,213.09" style="stroke:#181818;stroke-width:1.0;"/></g><!--MD5=[4ce996a24f59d1a51dc827afbab411c4]
link User to UC4--><g id="link_User_UC4"><path d="M75.58,273 C97.26,273 128.79,273 159.24,273 " fill="none" id="User-to-UC4" style="stroke:#181818;stroke-width:1.0;"/><polygon fill="#181818" points="164.21,273,155.21,269,159.21,273,155.21,277,164.21,273" style="stroke:#181818;stroke-width:1.0;"/></g><!--MD5=[ded8ba90975cb89afbb8aa34a82599c8]
link User to UC5--><g id="link_User_UC5"><path d="M75.75,287.13 C90.71,294.47 109.63,303.27 127,310 C146.76,317.66 168.71,324.89 188.65,331 " fill="none" id="User-to-UC5" style="stroke:#181818;stroke-width:1.0;"/><polygon fill="#181818" points="193.32,332.42,185.8577,325.9923,188.5328,330.9767,183.5485,333.6518,193.32,332.42" style="stroke:#181818;stroke-width:1.0;"/></g><!--MD5=[c3cbf0c63ed82a5d0a0584885332cee8]
link User to UC6--><g id="link_User_UC6"><path d="M66.8,312.78 C80.34,337.44 100.82,367.94 127,387 C141.1,397.26 157.99,404.79 174.75,410.29 " fill="none" id="User-to-UC6" style="stroke:#181818;stroke-width:1.0;"/><polygon fill="#181818" points="179.47,411.78,172.0839,405.265,174.7001,410.2805,169.6847,412.8968,179.47,411.78" style="stroke:#181818;stroke-width:1.0;"/></g><!--MD5=[6555d02e07d66791191afe52409c94c7]
link Admin to UC7--><g id="link_Admin_UC7"><path d="M88.4,543.32 C113.29,537.36 146,529.52 175.67,522.41 " fill="none" id="Admin-to-UC7" style="stroke:#181818;stroke-width:1.0;"/><polygon fill="#181818" points="180.48,521.26,170.798,519.4546,175.6161,522.4187,172.652,527.2368,180.48,521.26" style="stroke:#181818;stroke-width:1.0;"/></g><!--MD5=[8e21319948118d853d0cea7b7746d788]
link Admin to UC8--><g id="link_Admin_UC8"><path d="M88.4,559.12 C110.28,562.44 138.2,566.67 164.79,570.7 " fill="none" id="Admin-to-UC8" style="stroke:#181818;stroke-width:1.0;"/><polygon fill="#181818" points="169.66,571.44,161.3694,566.1234,164.7176,570.6829,160.1581,574.0312,169.66,571.44" style="stroke:#181818;stroke-width:1.0;"/></g><!--MD5=[d1d1ec6c7df7b14772038027612a1c8e]
link Admin to UC9--><g id="link_Admin_UC9"><path d="M86.45,592.91 C98.6,603.85 112.63,614.9 127,623 C143.7,632.41 162.95,639.84 181.28,645.58 " fill="none" id="Admin-to-UC9" style="stroke:#181818;stroke-width:1.0;"/><polygon fill="#181818" points="186.01,647.03,178.5653,640.582,181.2268,645.5736,176.2351,648.2351,186.01,647.03" style="stroke:#181818;stroke-width:1.0;"/></g><!--MD5=[933987b91d2b08b1b4941f3221fa6cec]
reverse link User to Admin--><g id="link_User_Admin"><path d="M47,319.1 C47,373.19 47,461.97 47,513.18 " fill="none" id="User-backto-Admin" style="stroke:#181818;stroke-width:1.0;stroke-dasharray:7.0,7.0;"/><polygon fill="#181818" points="47,314.2,43,323.2,47,319.2,51,323.2,47,314.2" style="stroke:#181818;stroke-width:1.0;"/><text fill="#000000" font-family="sans-serif" font-size="13" lengthAdjust="spacing" textLength="50" x="10.5" y="418.0684">extends</text></g><!--MD5=[c9afc812d7e4189e12eb44d36e2e3983]
@startuml usecase

left to right direction


skinparam actorStyle awesome
' il se connecte 
' il gère son profil '   - - Ajouter, Consulter, Editer Modifier, supprimer ses données"
' il gère son calendrier (Renseigner/Mettre à jour ses disponibilités)
' il recherche un profil (swipe) (il peut soit le bookmaker, soit le goldlister soit le blacklister soit il passe son chemin ou alors l’invité
' il invite en fonction de plusieurs critères y compris la date dispo
package Système {
'   usecase "Création du compte" as UC1
  usecase "Connexion" as UC1
  usecase "Gérer son profil" as UC2
  usecase "Gérer son calendrier" as UC3
  usecase "Gérer les invitations" as UC4
  usecase "Rechercher (swipper)" as UC5
  usecase "Planifier un déjeuner" as UC6
  usecase "Vérification des données" as UC7
  usecase "Validation des comptes" as UC8
  usecase "Gestion des données" as UC9
}
:User: - -> UC1
:User: - -> UC2
:User: - -> UC3
:User: - -> UC4
:User: - -> UC5
:User: - -> UC6
"Main Admin" as Admin
:Admin: - -> UC7
:Admin: - -> UC8
:Admin: - -> UC9
:User: <. :Admin: : extends
@enduml

@startuml usecase

left to right direction


skinparam actorStyle awesome
package Système {
  usecase "Connexion" as UC1
  usecase "Gérer son profil" as UC2
  usecase "Gérer son calendrier" as UC3
  usecase "Gérer les invitations" as UC4
  usecase "Rechercher (swipper)" as UC5
  usecase "Planifier un déjeuner" as UC6
  usecase "Vérification des données" as UC7
  usecase "Validation des comptes" as UC8
  usecase "Gestion des données" as UC9
}
:User: - -> UC1
:User: - -> UC2
:User: - -> UC3
:User: - -> UC4
:User: - -> UC5
:User: - -> UC6
"Main Admin" as Admin
:Admin: - -> UC7
:Admin: - -> UC8
:Admin: - -> UC9
:User: <. :Admin: : extends
@enduml

PlantUML version 1.2022.7(Mon Aug 22 19:01:30 CEST 2022)
(GPL source distribution)
Java Runtime: OpenJDK Runtime Environment
JVM: OpenJDK 64-Bit Server VM
Default Encoding: UTF-8
Language: fr
Country: FR
--></g></svg>